<mxfile host="app.diagrams.net" modified="2024-02-28T15:07:47.600Z" agent="Mozilla/5.0 (Macintosh; Intel Mac OS X 10_15_7) AppleWebKit/605.1.15 (KHTML, like Gecko) Version/17.2.1 Safari/605.1.15" version="23.1.5" etag="U5zdHqOx-xkl3Hy20i1L" type="github">
  <diagram name="Page-1" id="_qKNAqYmXroplIytZOEy">
    <mxGraphModel>
      <root>
        <mxCell id="0" />
        <mxCell id="1" parent="0" />
      </root>
    </mxGraphModel>
  </diagram>
</mxfile>
